<svg xmlns="http://www.w3.org/2000/svg" xmlns:xlink="http://www.w3.org/1999/xlink" width="1129.986" height="994.608" viewBox="0 0 1129.986 994.608">
  <defs>
    <clipPath id="clip-path">
      <path id="Path_77" data-name="Path 77" d="M224.7,482.109c0,171.984,93.245,323.938,236.22,416.492L565.906,662.381C408.558,567.1,287.25,455.51,242.941,455.5c-11.9-.007-18.241,8.04-18.241,26.613m439.976,64.926a4.255,4.255,0,0,1,.691-4.835L747.56,312.887c1.382-6.216,4.144-9.67,6.216-9.67s4.835,2.763,7.6,9.67L849.784,542.2c.691,2.072,1.381,3.454.691,4.144a5.838,5.838,0,0,1-4.144,1.381H668.13c-1.381,0-2.763,0-3.454-.691m98.77-364A151.839,151.839,0,0,0,751.7,209.973L567.978,663.763l41.442,20.721L648.1,586.4a9.755,9.755,0,0,1,9.67-6.907H859.454a7.846,7.846,0,0,1,5.526,2.072c1.381.691,2.072,2.072,2.762,3.453l87.719,209.282a21.162,21.162,0,0,1,2.072,15.886,8.872,8.872,0,0,1-6.907,6.907,47.624,47.624,0,0,0-5.526,2.072,5.075,5.075,0,0,0-1.382,4.144c0,2.763,2.763,4.144,7.6,4.835s11.742.691,20.721,1.381c33.844.691,64.235,1.381,92.553,2.072s45.586,0,54.566,0a40.22,40.22,0,0,0,13.124-2.072c3.453-.691,6.216-2.763,6.216-4.835a4.663,4.663,0,0,0-2.763-4.144,23.5,23.5,0,0,0-6.907-.691,150.192,150.192,0,0,1-17.267-.691,110.127,110.127,0,0,1-20.721-4.144c-9.669-1.381-21.412-7.6-34.535-20.03C979.635,683.1,936.812,550.488,885.009,427.543c-23.485-55.256-44.205-102.914-61.473-143.666s-27.628-67-31.772-75.977a139.277,139.277,0,0,0-12.433-24.865c-2.763-4.144-5.525-5.526-7.6-5.526s-5.525,1.381-8.289,5.526M789.693,0c770.131,1129.986,207.9,926.229-180.964,684.484l-104.3,239.673a611.74,611.74,0,0,0,285.259,70.452c312.2,0,564.993-229.313,564.993-512.5S1101.89,0,789.693,0Z" transform="translate(-224.7)" fill="#5c1517"/>
    </clipPath>
  </defs>
  <g id="Group_5571" data-name="Group 5571" transform="translate(0)">
    <g id="Group_204" data-name="Group 204" clip-path="url(#clip-path)">
      <rect id="Rectangle_85" data-name="Rectangle 85" width="1335.124" height="1129.986" transform="translate(0)" fill="#5c1517"/>
    </g>
  </g>
</svg>
